<?xml version="1.0" standalone="no"?><!DOCTYPE svg PUBLIC "-//W3C//DTD SVG 1.1//EN" "http://www.w3.org/Graphics/SVG/1.1/DTD/svg11.dtd"><svg t="1615559194517" class="icon" viewBox="0 0 1024 1024" version="1.1" xmlns="http://www.w3.org/2000/svg" p-id="4003" xmlns:xlink="http://www.w3.org/1999/xlink" width="200" height="200"><defs><style type="text/css"></style></defs><path d="M472.107 593.707a288.64 288.64 0 0 1-290.774-286.08 290.773 290.773 0 0 1 581.547 0 288.853 288.853 0 0 1-290.773 286.08m0-490.667A206.293 206.293 0 0 0 264.32 307.413a207.787 207.787 0 0 0 415.36 0A206.293 206.293 0 0 0 472.107 103.04" p-id="4004" fill="#ffffff"></path><path d="M119.04 981.333a41.173 41.173 0 0 1-41.6-40.746c0-202.667 168.747-429.44 394.667-429.44a40.96 40.96 0 1 1 0 81.706c-147.2 0-311.68 149.334-311.68 347.734a41.173 41.173 0 0 1-41.387 40.746m670.293 21.334A153.387 153.387 0 1 1 945.067 849.28a154.667 154.667 0 0 1-155.734 153.387m0-224.854a71.68 71.68 0 1 0 72.747 71.467 71.893 71.893 0 0 0-72.747-71.467" p-id="4005" fill="#ffffff"></path><path d="M741.973 712.96V473.6a44.16 44.16 0 0 1 88.32 0v239.36a44.16 44.16 0 0 1-88.32 0" p-id="4006" fill="#ffffff"></path><path d="M792.96 427.733H864a42.667 42.667 0 1 1 0 86.827h-71.04a42.667 42.667 0 1 1 0-86.827M792.96 570.88H864a42.667 42.667 0 1 1 0 86.827h-71.04a42.667 42.667 0 1 1 0-86.827" p-id="4007" fill="#ffffff"></path></svg>