<?xml version="1.0" standalone="no"?><!DOCTYPE svg PUBLIC "-//W3C//DTD SVG 1.1//EN" "http://www.w3.org/Graphics/SVG/1.1/DTD/svg11.dtd"><svg t="1615558914280" class="icon" viewBox="0 0 1024 1024" version="1.1" xmlns="http://www.w3.org/2000/svg" p-id="1030" xmlns:xlink="http://www.w3.org/1999/xlink" width="200" height="200"><defs><style type="text/css"></style></defs><path d="M981.056 793.6c8.448 0 19.52 5.504 19.52 13.76v131.008c-1.408 20.608-15.424 34.432-36.48 34.432h-91.264c-8.448 0-14.08-5.504-14.08-13.76v-64.832c0-9.6-14.72-14.4-27.328-14.4-12.608 0-30.208 3.392-30.208 14.4v64.832c0 8.256-5.568 13.76-14.08 13.76h-88.32c-21.12 0-36.544-15.168-36.544-34.432v-131.008c0-8.256 11.648-13.76 20.096-13.76s19.84 5.504 19.84 13.76v121.216c0 4.16 2.752 6.912 8.32 6.912h54.144v-41.28c0-32.32 40.064-51.2 66.752-51.2 26.624 0 65.536 18.88 65.536 51.2v41.28h57.6c4.16 0 7.04 0 7.04-8.32v-119.808c0-8.256 11.008-13.76 19.456-13.76zM640.64 64a243.2 243.2 0 0 1 243.264 242.432c0 45.568-12.672 89.856-36.8 128.192a244.224 244.224 0 0 1-81.216 79.68c-22.592 9.216-60.928 36.288-124.352 35.84l-0.512 0.064h-0.384c-84.608 1.664-171.712 35.392-232.256 95.68a326.016 326.016 0 0 0-96.448 232.32 28.288 28.288 0 0 1-56.704 0 378.88 378.88 0 0 1 77.44-230.656A343.232 343.232 0 0 1 417.728 563.2c30.016-21.056 62.144-37.504 96.832-49.728a242.56 242.56 0 0 1-117.12-207.04A243.2 243.2 0 0 1 640.64 64z m-325.824 46.72c15.616 0 28.288 13.696 28.288 30.656 0 16.896-12.672 30.656-28.288 30.656-79.168 0-143.424 74.56-143.424 166.08 0 91.52 64.256 166.144 143.36 166.144 15.68 0 28.352 13.76 28.352 30.72 0 16.896-12.672 30.592-28.288 30.592-142.208 0-258.112 133.696-258.112 297.536 0 16.896-12.672 30.656-28.352 30.656-15.616 0-28.352-13.76-28.352-30.72a384.256 384.256 0 0 1 59.648-210.496c36.416-57.216 85.888-99.776 143.424-124.48-25.344-19.2-46.528-44.8-61.76-75.072a251.776 251.776 0 0 1-27.072-114.368c0-125.44 89.728-227.968 200.576-227.968z m542.144 486.976l162.88 142.208c5.504 4.416 5.568 25.344 0 31.232-5.504 5.952-24.768 5.952-30.272 0l-149.12-129.92a16.64 16.64 0 0 0-16.64 0l-148.16 133.76c-2.752 2.944-5.568 2.944-8.32 2.944-4.096 0-18.752-2.304-21.504-6.784-5.504-5.888-8.32-25.344-2.88-29.76l162.944-143.68c15.168-11.84 37.248-11.84 51.072 0z m-216.32-476.8a186.112 186.112 0 0 0-186.112 185.6c0 102.4 83.776 185.472 186.112 185.472a186.112 186.112 0 0 0 186.176-185.536c0-102.4-83.328-185.536-186.176-185.536z" fill="#ffffff" p-id="1031"></path></svg>